<svg width="2000px" height="471px"
 viewBox="0.00 0.00 1069.18 252.33" xmlns="http://www.w3.org/2000/svg" xmlns:xlink="http://www.w3.org/1999/xlink">
<g id="graph0" class="graph" transform="scale(1.0 1.0) rotate(0) translate(4 248.33)">
<title>ContextMapGraph</title>
<polygon fill="white" stroke="transparent" points="-4,4 -4,-248.33 1065.18,-248.33 1065.18,4 -4,4"/>
<!-- Conformist -->
<g id="node1" class="node">
<title>Conformist</title>
<polygon fill="none" stroke="black" stroke-width="2" points="118.21,-92.27 112.2,-92.78 106.18,-93.16 100.18,-93.42 94.22,-93.56 88.33,-93.57 82.53,-93.44 76.84,-93.19 71.29,-92.81 65.88,-92.3 60.65,-91.66 55.61,-90.9 50.78,-90.01 46.16,-88.99 41.78,-87.86 37.65,-86.61 33.77,-85.25 30.16,-83.77 26.82,-82.19 23.76,-80.52 20.98,-78.74 18.49,-76.88 16.29,-74.93 14.37,-72.9 12.74,-70.81 11.39,-68.64 10.32,-66.42 9.53,-64.15 9,-61.84 8.74,-59.48 8.73,-57.1 8.97,-54.7 9.44,-52.29 10.15,-49.87 11.07,-47.45 12.2,-45.03 13.53,-42.64 15.05,-40.27 16.75,-37.93 18.62,-35.63 20.65,-33.37 22.83,-31.17 25.16,-29.02 27.62,-26.94 30.21,-24.92 32.93,-22.99 35.75,-21.13 38.69,-19.36 41.73,-17.67 44.86,-16.09 48.09,-14.59 51.41,-13.21 54.81,-11.92 58.3,-10.74 61.87,-9.68 65.51,-8.72 69.23,-7.88 73.02,-7.15 76.88,-6.54 80.81,-6.04 84.8,-5.66 88.86,-5.4 92.97,-5.25 97.14,-5.22 101.37,-5.31 105.64,-5.5 109.95,-5.81 114.3,-6.24 118.67,-6.77 123.07,-7.4 127.49,-8.14 131.91,-8.99 136.33,-9.93 140.74,-10.97 145.12,-12.1 149.46,-13.33 153.76,-14.64 157.99,-16.03 162.14,-17.51 166.2,-19.06 170.16,-20.69 173.99,-22.38 177.68,-24.14 181.22,-25.96 184.58,-27.84 187.76,-29.77 190.74,-31.75 193.49,-33.78 196.01,-35.84 198.27,-37.94 200.28,-40.07 202,-42.22 203.43,-44.4 204.56,-46.59 205.37,-48.79 205.86,-50.99 206.02,-53.2 205.84,-55.4 205.32,-57.59 204.45,-59.77 203.23,-61.92 201.67,-64.05 199.76,-66.14 197.5,-68.2 194.91,-70.21 191.99,-72.18 188.75,-74.09 185.19,-75.94 181.34,-77.72 177.2,-79.44 172.8,-81.08 168.14,-82.64 163.24,-84.11 158.14,-85.49 152.83,-86.78 147.36,-87.96 141.74,-89.05 135.98,-90.02 130.13,-90.89 124.2,-91.63 118.21,-92.27"/>
<text text-anchor="middle" x="103.01" y="-44.97" font-family="sans-serif" font-size="16.00">Conformist</text>
</g>
<!-- PartnerA -->
<g id="node2" class="node">
<title>PartnerA</title>
<polygon fill="none" stroke="black" stroke-width="2" points="698.28,-238.85 693.05,-238.51 687.88,-238.05 682.79,-237.48 677.81,-236.79 672.95,-235.99 668.23,-235.08 663.68,-234.06 659.3,-232.94 655.12,-231.72 651.15,-230.39 647.4,-228.98 643.89,-227.47 640.63,-225.87 637.62,-224.2 634.88,-222.44 632.42,-220.62 630.23,-218.72 628.32,-216.77 626.69,-214.75 625.35,-212.68 624.3,-210.57 623.52,-208.42 623.03,-206.23 622.8,-204.02 622.85,-201.78 623.16,-199.52 623.72,-197.25 624.52,-194.98 625.56,-192.71 626.83,-190.45 628.31,-188.2 629.99,-185.97 631.87,-183.76 633.92,-181.59 636.14,-179.45 638.52,-177.36 641.04,-175.32 643.69,-173.32 646.46,-171.39 649.35,-169.53 652.33,-167.73 655.39,-166.01 658.54,-164.37 661.75,-162.81 665.02,-161.34 668.35,-159.96 671.72,-158.68 675.12,-157.49 678.56,-156.41 682.02,-155.44 685.5,-154.57 688.99,-153.82 692.49,-153.18 696.01,-152.65 699.52,-152.24 703.04,-151.95 706.55,-151.78 710.06,-151.73 713.57,-151.79 717.06,-151.98 720.55,-152.28 724.02,-152.71 727.47,-153.25 730.91,-153.91 734.32,-154.68 737.71,-155.57 741.07,-156.56 744.39,-157.66 747.68,-158.87 750.93,-160.18 754.12,-161.59 757.26,-163.09 760.34,-164.68 763.34,-166.35 766.27,-168.11 769.11,-169.95 771.85,-171.85 774.48,-173.82 777,-175.85 779.39,-177.94 781.64,-180.07 783.75,-182.25 785.69,-184.47 787.46,-186.71 789.05,-188.98 790.44,-191.27 791.63,-193.57 792.6,-195.88 793.34,-198.18 793.85,-200.48 794.12,-202.76 794.14,-205.02 793.9,-207.26 793.39,-209.46 792.62,-211.63 791.57,-213.74 790.24,-215.81 788.64,-217.82 786.76,-219.77 784.6,-221.65 782.18,-223.46 779.48,-225.19 776.52,-226.83 773.31,-228.39 769.85,-229.86 766.15,-231.23 762.23,-232.5 758.1,-233.67 753.77,-234.73 749.26,-235.69 744.59,-236.53 739.77,-237.26 734.82,-237.87 729.76,-238.37 724.61,-238.75 719.39,-239.01 714.13,-239.15 708.84,-239.17 703.55,-239.07 698.28,-238.85"/>
<text text-anchor="middle" x="709.01" y="-191.64" font-family="sans-serif" font-size="16.00">PartnerA</text>
</g>
<!-- PartnerB -->
<g id="node3" class="node">
<title>PartnerB</title>
<polygon fill="none" stroke="black" stroke-width="2" points="646.93,-20.87 650.23,-18.65 653.68,-16.51 657.27,-14.47 660.99,-12.55 664.81,-10.73 668.73,-9.05 672.73,-7.49 676.8,-6.07 680.93,-4.8 685.09,-3.67 689.29,-2.7 693.5,-1.88 697.72,-1.22 701.93,-0.73 706.12,-0.4 710.28,-0.23 714.39,-0.22 718.46,-0.38 722.46,-0.7 726.4,-1.18 730.26,-1.81 734.03,-2.59 737.7,-3.52 741.28,-4.59 744.75,-5.8 748.11,-7.13 751.35,-8.59 754.47,-10.16 757.47,-11.84 760.33,-13.62 763.05,-15.49 765.64,-17.45 768.09,-19.48 770.4,-21.57 772.55,-23.72 774.56,-25.92 776.42,-28.16 778.12,-30.44 779.66,-32.73 781.05,-35.05 782.28,-37.37 783.34,-39.69 784.24,-42.01 784.97,-44.31 785.53,-46.59 785.92,-48.85 786.14,-51.08 786.18,-53.27 786.04,-55.42 785.73,-57.53 785.24,-59.58 784.57,-61.59 783.71,-63.54 782.67,-65.43 781.45,-67.27 780.04,-69.04 778.45,-70.75 776.67,-72.39 774.71,-73.97 772.57,-75.47 770.25,-76.91 767.75,-78.29 765.07,-79.59 762.23,-80.82 759.21,-81.98 756.04,-83.07 752.7,-84.09 749.22,-85.04 745.59,-85.91 741.83,-86.71 737.94,-87.43 733.94,-88.08 729.83,-88.66 725.62,-89.15 721.32,-89.57 716.96,-89.9 712.53,-90.16 708.06,-90.32 703.56,-90.41 699.03,-90.4 694.51,-90.31 690,-90.12 685.51,-89.84 681.07,-89.47 676.68,-89 672.37,-88.43 668.15,-87.76 664.04,-86.98 660.05,-86.11 656.19,-85.13 652.49,-84.04 648.95,-82.85 645.59,-81.56 642.42,-80.16 639.45,-78.66 636.7,-77.06 634.17,-75.35 631.89,-73.55 629.84,-71.66 628.05,-69.67 626.51,-67.6 625.24,-65.45 624.24,-63.21 623.51,-60.91 623.05,-58.54 622.87,-56.12 622.96,-53.64 623.33,-51.12 623.96,-48.57 624.86,-45.99 626.02,-43.4 627.44,-40.79 629.1,-38.19 631,-35.6 633.14,-33.03 635.5,-30.5 638.07,-28 640.84,-25.56 643.8,-23.18 646.93,-20.87"/>
<text text-anchor="middle" x="709.01" y="-44.97" font-family="sans-serif" font-size="16.00">PartnerB</text>
</g>
<!-- PartnerA&#45;&gt;PartnerB -->
<g id="edge1" class="edge">
<title>PartnerA&#45;&gt;PartnerB</title>
<path fill="none" stroke="black" stroke-width="2" d="M709.01,-151.43C709.01,-132.1 709.01,-109.42 709.01,-90.39"/>
<text text-anchor="middle" x="743.51" y="-118.95" font-family="sans-serif" font-size="12.00">Partnership</text>
</g>
<!-- SharedKernel1 -->
<g id="node4" class="node">
<title>SharedKernel1</title>
<polygon fill="none" stroke="black" stroke-width="2" points="822.64,-191.1 823.27,-188.23 824.21,-185.39 825.46,-182.58 827.01,-179.84 828.87,-177.15 831.02,-174.54 833.46,-172.02 836.19,-169.58 839.19,-167.26 842.46,-165.04 845.99,-162.94 849.77,-160.97 853.79,-159.13 858.04,-157.43 862.5,-155.87 867.17,-154.45 872.03,-153.19 877.07,-152.08 882.27,-151.12 887.62,-150.31 893.1,-149.66 898.71,-149.16 904.42,-148.82 910.23,-148.62 916.1,-148.56 922.03,-148.65 928.01,-148.88 934,-149.24 940.01,-149.73 946.01,-150.34 951.98,-151.07 957.91,-151.91 963.79,-152.86 969.59,-153.9 975.3,-155.04 980.91,-156.27 986.39,-157.58 991.75,-158.96 996.95,-160.4 1001.98,-161.91 1006.84,-163.48 1011.51,-165.1 1015.97,-166.76 1020.22,-168.46 1024.24,-170.2 1028.02,-171.96 1031.55,-173.76 1034.82,-175.58 1037.82,-177.42 1040.55,-179.28 1042.99,-181.15 1045.15,-183.03 1047,-184.93 1048.56,-186.83 1049.81,-188.73 1050.75,-190.65 1051.37,-192.56 1051.69,-194.48 1051.69,-196.4 1051.37,-198.31 1050.75,-200.23 1049.81,-202.14 1048.56,-204.05 1047,-205.95 1045.15,-207.84 1042.99,-209.73 1040.55,-211.6 1037.82,-213.46 1034.82,-215.29 1031.55,-217.11 1028.02,-218.91 1024.24,-220.68 1020.22,-222.42 1015.97,-224.12 1011.51,-225.78 1006.84,-227.4 1001.98,-228.96 996.95,-230.47 991.75,-231.92 986.39,-233.3 980.91,-234.61 975.3,-235.83 969.59,-236.97 963.79,-238.02 957.91,-238.96 951.98,-239.81 946.01,-240.54 940.01,-241.15 934,-241.64 928.01,-242 922.03,-242.22 916.1,-242.31 910.23,-242.26 904.42,-242.06 898.71,-241.71 893.1,-241.21 887.62,-240.56 882.27,-239.76 877.07,-238.8 872.03,-237.69 867.17,-236.42 862.5,-235.01 858.04,-233.45 853.79,-231.75 849.77,-229.91 845.99,-227.94 842.46,-225.84 839.19,-223.62 836.19,-221.29 833.46,-218.86 831.02,-216.33 828.87,-213.72 827.01,-211.04 825.46,-208.29 824.21,-205.49 823.27,-202.65 822.64,-199.78 822.33,-196.89 822.33,-193.99 822.64,-191.1"/>
<text text-anchor="middle" x="937.01" y="-191.64" font-family="sans-serif" font-size="16.00">SharedKernel1</text>
</g>
<!-- SharedKernel2 -->
<g id="node5" class="node">
<title>SharedKernel2</title>
<polygon fill="none" stroke="black" stroke-width="2" points="840.99,-72.96 836.77,-70.58 832.84,-68.15 829.22,-65.68 825.92,-63.18 822.96,-60.65 820.35,-58.11 818.11,-55.56 816.24,-53.02 814.75,-50.49 813.66,-47.99 812.96,-45.51 812.66,-43.07 812.77,-40.68 813.28,-38.34 814.19,-36.06 815.51,-33.84 817.21,-31.69 819.3,-29.61 821.77,-27.62 824.61,-25.7 827.81,-23.88 831.35,-22.14 835.22,-20.5 839.4,-18.94 843.88,-17.49 848.64,-16.13 853.65,-14.86 858.9,-13.7 864.37,-12.63 870.04,-11.66 875.88,-10.79 881.87,-10.01 887.99,-9.33 894.22,-8.74 900.53,-8.25 906.9,-7.85 913.3,-7.54 919.73,-7.32 926.14,-7.19 932.54,-7.15 938.88,-7.19 945.16,-7.32 951.35,-7.53 957.45,-7.83 963.42,-8.21 969.26,-8.67 974.95,-9.21 980.48,-9.83 985.83,-10.53 990.99,-11.31 995.96,-12.18 1000.72,-13.12 1005.27,-14.14 1009.6,-15.24 1013.7,-16.41 1017.56,-17.67 1021.19,-19 1024.58,-20.41 1027.72,-21.9 1030.62,-23.46 1033.28,-25.09 1035.68,-26.8 1037.84,-28.58 1039.75,-30.43 1041.41,-32.34 1042.83,-34.32 1044,-36.36 1044.92,-38.45 1045.61,-40.6 1046.05,-42.8 1046.25,-45.04 1046.21,-47.32 1045.94,-49.64 1045.43,-51.98 1044.68,-54.34 1043.71,-56.72 1042.5,-59.1 1041.06,-61.49 1039.39,-63.86 1037.49,-66.22 1035.37,-68.55 1033.02,-70.85 1030.45,-73.11 1027.66,-75.32 1024.64,-77.47 1021.41,-79.55 1017.97,-81.55 1014.31,-83.47 1010.44,-85.3 1006.37,-87.02 1002.1,-88.64 997.63,-90.13 992.98,-91.51 988.14,-92.75 983.13,-93.85 977.95,-94.82 972.62,-95.64 967.14,-96.3 961.52,-96.81 955.78,-97.16 949.93,-97.35 943.99,-97.38 937.96,-97.25 931.87,-96.95 925.73,-96.49 919.56,-95.88 913.37,-95.1 907.19,-94.17 901.04,-93.09 894.93,-91.86 888.89,-90.49 882.93,-88.99 877.09,-87.36 871.37,-85.6 865.81,-83.73 860.42,-81.75 855.22,-79.68 850.24,-77.52 845.49,-75.27 840.99,-72.96"/>
<text text-anchor="middle" x="937.01" y="-44.97" font-family="sans-serif" font-size="16.00">SharedKernel2</text>
</g>
<!-- SharedKernel1&#45;&gt;SharedKernel2 -->
<g id="edge2" class="edge">
<title>SharedKernel1&#45;&gt;SharedKernel2</title>
<path fill="none" stroke="black" stroke-width="2" d="M937.01,-149.46C937.01,-132.87 937.01,-114.03 937.01,-97.23"/>
<text text-anchor="middle" x="979.01" y="-118.95" font-family="sans-serif" font-size="12.00">Shared Kernel</text>
</g>
<!-- Supplier -->
<g id="node6" class="node">
<title>Supplier</title>
<polygon fill="none" stroke="black" stroke-width="2" points="292.34,-6.03 297.34,-5.28 302.36,-4.64 307.39,-4.13 312.4,-3.76 317.38,-3.51 322.3,-3.39 327.14,-3.41 331.89,-3.56 336.54,-3.85 341.06,-4.27 345.44,-4.82 349.66,-5.51 353.72,-6.33 357.6,-7.28 361.29,-8.36 364.78,-9.56 368.06,-10.88 371.13,-12.32 373.98,-13.87 376.6,-15.52 379,-17.28 381.16,-19.13 383.1,-21.07 384.81,-23.1 386.28,-25.2 387.53,-27.37 388.56,-29.6 389.37,-31.89 389.96,-34.22 390.34,-36.59 390.52,-39 390.5,-41.43 390.28,-43.87 389.88,-46.32 389.31,-48.77 388.56,-51.21 387.65,-53.64 386.58,-56.04 385.36,-58.41 384,-60.75 382.5,-63.04 380.87,-65.27 379.11,-67.45 377.24,-69.57 375.25,-71.61 373.16,-73.58 370.96,-75.47 368.65,-77.27 366.25,-78.98 363.76,-80.6 361.17,-82.12 358.5,-83.54 355.74,-84.86 352.89,-86.07 349.96,-87.18 346.95,-88.17 343.87,-89.05 340.7,-89.82 337.46,-90.48 334.15,-91.02 330.76,-91.45 327.31,-91.76 323.79,-91.96 320.21,-92.05 316.57,-92.03 312.88,-91.9 309.14,-91.66 305.36,-91.31 301.54,-90.86 297.7,-90.3 293.83,-89.64 289.95,-88.88 286.06,-88.03 282.18,-87.08 278.32,-86.03 274.49,-84.9 270.7,-83.69 266.95,-82.38 263.28,-81 259.68,-79.54 256.18,-78.01 252.79,-76.41 249.51,-74.74 246.38,-73 243.39,-71.21 240.57,-69.36 237.92,-67.45 235.47,-65.5 233.23,-63.5 231.2,-61.46 229.41,-59.38 227.86,-57.27 226.56,-55.13 225.53,-52.97 224.77,-50.79 224.29,-48.6 224.1,-46.39 224.19,-44.19 224.59,-41.98 225.28,-39.79 226.26,-37.6 227.55,-35.43 229.13,-33.29 231,-31.18 233.16,-29.1 235.6,-27.06 238.32,-25.07 241.29,-23.13 244.52,-21.25 247.98,-19.43 251.68,-17.69 255.58,-16.02 259.68,-14.43 263.95,-12.93 268.39,-11.52 272.97,-10.21 277.68,-9 282.49,-7.9 287.38,-6.91 292.34,-6.03"/>
<text text-anchor="middle" x="312.01" y="-44.97" font-family="sans-serif" font-size="16.00">Supplier</text>
</g>
<!-- UpstreamContext -->
<g id="node7" class="node">
<title>UpstreamContext</title>
<polygon fill="none" stroke="black" stroke-width="2" points="202.22,-171.15 206.88,-168.75 211.83,-166.42 217.02,-164.19 222.46,-162.05 228.1,-160.03 233.95,-158.13 239.97,-156.35 246.14,-154.7 252.46,-153.2 258.88,-151.84 265.41,-150.63 272,-149.57 278.66,-148.68 285.35,-147.95 292.06,-147.38 298.77,-146.97 305.47,-146.73 312.13,-146.66 318.75,-146.75 325.3,-147 331.78,-147.41 338.16,-147.98 344.43,-148.7 350.59,-149.56 356.62,-150.57 362.5,-151.71 368.24,-152.97 373.81,-154.36 379.21,-155.87 384.43,-157.48 389.45,-159.19 394.28,-160.99 398.91,-162.87 403.32,-164.83 407.5,-166.85 411.46,-168.93 415.19,-171.06 418.68,-173.23 421.91,-175.43 424.9,-177.66 427.62,-179.9 430.08,-182.16 432.27,-184.41 434.19,-186.67 435.82,-188.91 437.17,-191.14 438.22,-193.35 438.98,-195.53 439.45,-197.68 439.6,-199.8 439.45,-201.88 438.99,-203.92 438.21,-205.91 437.12,-207.86 435.7,-209.75 433.97,-211.6 431.92,-213.39 429.55,-215.13 426.86,-216.81 423.85,-218.44 420.52,-220.01 416.89,-221.52 412.94,-222.97 408.7,-224.36 404.16,-225.69 399.34,-226.95 394.24,-228.16 388.87,-229.3 383.24,-230.38 377.37,-231.39 371.28,-232.33 364.96,-233.2 358.45,-234.01 351.76,-234.74 344.91,-235.4 337.91,-235.98 330.79,-236.49 323.57,-236.91 316.26,-237.25 308.9,-237.5 301.51,-237.67 294.11,-237.74 286.72,-237.71 279.38,-237.59 272.09,-237.37 264.9,-237.05 257.83,-236.62 250.89,-236.08 244.12,-235.44 237.54,-234.68 231.16,-233.81 225.03,-232.82 219.15,-231.72 213.55,-230.51 208.26,-229.18 203.28,-227.74 198.63,-226.19 194.34,-224.52 190.41,-222.75 186.87,-220.87 183.72,-218.89 180.98,-216.82 178.64,-214.65 176.73,-212.4 175.24,-210.06 174.18,-207.65 173.54,-205.18 173.34,-202.65 173.57,-200.07 174.22,-197.45 175.29,-194.79 176.77,-192.12 178.66,-189.43 180.94,-186.74 183.61,-184.06 186.65,-181.4 190.04,-178.76 193.78,-176.17 197.84,-173.63 202.22,-171.15"/>
<text text-anchor="middle" x="312.01" y="-191.64" font-family="sans-serif" font-size="16.00">UpstreamContext</text>
</g>
<!-- UpstreamContext&#45;&gt;Conformist -->
<g id="edge4" class="edge">
<title>UpstreamContext&#45;&gt;Conformist</title>
<path fill="none" stroke="black" stroke-width="2" d="M217,-164.12C195.94,-154.75 174.66,-143 157.01,-128.55 144.69,-118.47 134.02,-104.87 125.49,-91.81"/>
<text text-anchor="middle" x="232.51" y="-118.95" font-family="sans-serif" font-size="12.00"> &#160;&#160;&#160;&#160;&#160;&#160;&#160;&#160;&#160;&#160;&#160;&#160;&#160;&#160;&#160;&#160;&#160;&#160;&#160;&#160;&#160;&#160;&#160;&#160;&#160;&#160;&#160;&#160;&#160;&#160;&#160;&#160;&#160;&#160;&#160;&#160;&#160;&#160;&#160;</text>
<polygon fill="white" stroke="transparent" points="106.49,-81.81 106.49,-100.81 122.49,-100.81 122.49,-81.81 106.49,-81.81"/>
<polyline fill="none" stroke="black" points="122.49,-81.81 122.49,-100.81 "/>
<text text-anchor="start" x="109.49" y="-88.21" font-family="sans-serif" font-size="12.00">D</text>
<polygon fill="white" stroke="transparent" points="122.49,-81.81 122.49,-100.81 144.49,-100.81 144.49,-81.81 122.49,-81.81"/>
<polygon fill="none" stroke="black" points="122.49,-81.81 122.49,-100.81 144.49,-100.81 144.49,-81.81 122.49,-81.81"/>
<text text-anchor="start" x="125.49" y="-88.21" font-family="sans-serif" font-size="12.00">CF</text>
<polygon fill="white" stroke="transparent" points="182,-154.12 182,-173.12 198,-173.12 198,-154.12 182,-154.12"/>
<polyline fill="none" stroke="black" points="198,-154.12 198,-173.12 "/>
<text text-anchor="start" x="185" y="-160.52" font-family="sans-serif" font-size="12.00">U</text>
<polygon fill="white" stroke="transparent" points="198,-154.12 198,-173.12 253,-173.12 253,-154.12 198,-154.12"/>
<polygon fill="none" stroke="black" points="198,-154.12 198,-173.12 253,-173.12 253,-154.12 198,-154.12"/>
<text text-anchor="start" x="201" y="-160.52" font-family="sans-serif" font-size="12.00">OHS, PL</text>
</g>
<!-- UpstreamContext&#45;&gt;Supplier -->
<g id="edge5" class="edge">
<title>UpstreamContext&#45;&gt;Supplier</title>
<path fill="none" stroke="black" stroke-width="2" d="M312.01,-146.27C312.01,-128.68 312.01,-108.94 312.01,-91.91"/>
<text text-anchor="middle" x="368.01" y="-118.95" font-family="sans-serif" font-size="12.00">Customer/Supplier</text>
<polygon fill="white" stroke="transparent" points="305.01,-82.91 305.01,-99.91 319.01,-99.91 319.01,-82.91 305.01,-82.91"/>
<text text-anchor="start" x="307.01" y="-88.31" font-family="sans-serif" font-size="12.00">D</text>
<polygon fill="white" stroke="transparent" points="305.01,-137.27 305.01,-154.27 319.01,-154.27 319.01,-137.27 305.01,-137.27"/>
<text text-anchor="start" x="307.01" y="-142.67" font-family="sans-serif" font-size="12.00">U</text>
</g>
<!-- YASupplier -->
<g id="node8" class="node">
<title>YASupplier</title>
<polygon fill="none" stroke="black" stroke-width="2" points="603.99,-53.11 603.48,-55.98 602.72,-58.83 601.7,-61.63 600.44,-64.38 598.93,-67.06 597.18,-69.67 595.19,-72.2 592.98,-74.63 590.53,-76.96 587.87,-79.17 585,-81.27 581.93,-83.25 578.66,-85.08 575.21,-86.79 571.58,-88.35 567.79,-89.76 563.84,-91.02 559.74,-92.13 555.51,-93.09 551.16,-93.9 546.7,-94.55 542.14,-95.05 537.5,-95.4 532.78,-95.6 528,-95.65 523.18,-95.56 518.32,-95.34 513.45,-94.97 508.56,-94.49 503.69,-93.87 498.83,-93.14 494.01,-92.3 489.23,-91.35 484.52,-90.31 479.87,-89.17 475.31,-87.94 470.85,-86.64 466.5,-85.26 462.27,-83.81 458.18,-82.3 454.23,-80.73 450.43,-79.12 446.8,-77.46 443.35,-75.75 440.08,-74.02 437.01,-72.25 434.14,-70.45 431.48,-68.63 429.04,-66.79 426.82,-64.94 424.83,-63.06 423.08,-61.18 421.58,-59.29 420.31,-57.39 419.3,-55.48 418.53,-53.57 418.02,-51.65 417.77,-49.73 417.77,-47.82 418.02,-45.9 418.53,-43.98 419.3,-42.07 420.31,-40.16 421.58,-38.26 423.08,-36.37 424.83,-34.49 426.82,-32.61 429.04,-30.76 431.48,-28.92 434.14,-27.1 437.01,-25.3 440.08,-23.53 443.35,-21.8 446.8,-20.09 450.43,-18.43 454.23,-16.82 458.18,-15.25 462.27,-13.74 466.5,-12.29 470.85,-10.91 475.31,-9.61 479.87,-8.38 484.52,-7.24 489.23,-6.19 494.01,-5.25 498.83,-4.41 503.69,-3.68 508.56,-3.06 513.45,-2.57 518.32,-2.21 523.18,-1.99 528,-1.9 532.78,-1.95 537.5,-2.15 542.14,-2.5 546.7,-3 551.16,-3.65 555.51,-4.46 559.74,-5.42 563.84,-6.53 567.79,-7.79 571.58,-9.2 575.21,-10.76 578.66,-12.46 581.93,-14.3 585,-16.28 587.87,-18.37 590.53,-20.59 592.98,-22.92 595.19,-25.35 597.18,-27.88 598.93,-30.49 600.44,-33.17 601.7,-35.92 602.72,-38.72 603.48,-41.57 603.99,-44.44 604.25,-47.33 604.25,-50.22 603.99,-53.11"/>
<text text-anchor="middle" x="511.01" y="-44.97" font-family="sans-serif" font-size="16.00">YASupplier</text>
</g>
<!-- UpstreamContext&#45;&gt;YASupplier -->
<g id="edge3" class="edge">
<title>UpstreamContext&#45;&gt;YASupplier</title>
<path fill="none" stroke="black" stroke-width="2" d="M383.96,-157.18C398.95,-148.44 414.33,-138.69 428.01,-128.55 444.29,-116.48 460.77,-101.52 474.71,-87.9"/>
<text text-anchor="middle" x="518.51" y="-118.95" font-family="sans-serif" font-size="12.00"> &#160;&#160;&#160;&#160;&#160;&#160;&#160;&#160;&#160;&#160;&#160;&#160;&#160;&#160;&#160;&#160;&#160;&#160;&#160;&#160;&#160;&#160;&#160;&#160;&#160;&#160;&#160;&#160;&#160;&#160;&#160;&#160;&#160;&#160;&#160;&#160;&#160;&#160;&#160;</text>
<polygon fill="white" stroke="transparent" points="451.71,-77.9 451.71,-96.9 467.71,-96.9 467.71,-77.9 451.71,-77.9"/>
<polyline fill="none" stroke="black" points="467.71,-77.9 467.71,-96.9 "/>
<text text-anchor="start" x="454.71" y="-84.3" font-family="sans-serif" font-size="12.00">D</text>
<polygon fill="white" stroke="transparent" points="467.71,-77.9 467.71,-96.9 497.71,-96.9 497.71,-77.9 467.71,-77.9"/>
<polygon fill="none" stroke="black" points="467.71,-77.9 467.71,-96.9 497.71,-96.9 497.71,-77.9 467.71,-77.9"/>
<text text-anchor="start" x="470.71" y="-84.3" font-family="sans-serif" font-size="12.00">ACL</text>
<polygon fill="white" stroke="transparent" points="348.96,-147.18 348.96,-166.18 364.96,-166.18 364.96,-147.18 348.96,-147.18"/>
<polyline fill="none" stroke="black" points="364.96,-147.18 364.96,-166.18 "/>
<text text-anchor="start" x="351.96" y="-153.58" font-family="sans-serif" font-size="12.00">U</text>
<polygon fill="white" stroke="transparent" points="364.96,-147.18 364.96,-166.18 419.96,-166.18 419.96,-147.18 364.96,-147.18"/>
<polygon fill="none" stroke="black" points="364.96,-147.18 364.96,-166.18 419.96,-166.18 419.96,-147.18 364.96,-147.18"/>
<text text-anchor="start" x="367.96" y="-153.58" font-family="sans-serif" font-size="12.00">OHS, PL</text>
</g>
</g>
</svg>
